<svg width="167" height="313" viewBox="0 0 167 313" fill="none" xmlns="http://www.w3.org/2000/svg">
<path d="M7.65625 218.5H41.3438" stroke="white" stroke-width="3" stroke-linecap="round" stroke-linejoin="round"/>
<path d="M24.5 201.656V235.344" stroke="white" stroke-width="3" stroke-linecap="round" stroke-linejoin="round"/>
<path d="M7.65625 288.5H41.3438" stroke="white" stroke-width="3" stroke-linecap="round" stroke-linejoin="round"/>
<path d="M24.5 271.656V305.344" stroke="white" stroke-width="3" stroke-linecap="round" stroke-linejoin="round"/>
<path d="M66.6562 86.5H100.344" stroke="white" stroke-width="3" stroke-linecap="round" stroke-linejoin="round"/>
<path d="M83.5 69.6562V103.344" stroke="white" stroke-width="3" stroke-linecap="round" stroke-linejoin="round"/>
<path d="M66.6562 24.5H100.344" stroke="white" stroke-width="3" stroke-linecap="round" stroke-linejoin="round"/>
<path d="M83.5 7.65625V41.3438" stroke="white" stroke-width="3" stroke-linecap="round" stroke-linejoin="round"/>
<path d="M66.6562 148.5H100.344" stroke="white" stroke-width="3" stroke-linecap="round" stroke-linejoin="round"/>
<path d="M83.5 131.656V165.344" stroke="white" stroke-width="3" stroke-linecap="round" stroke-linejoin="round"/>
<path d="M66.6562 218.5H100.344" stroke="white" stroke-width="3" stroke-linecap="round" stroke-linejoin="round"/>
<path d="M83.5 201.656V235.344" stroke="white" stroke-width="3" stroke-linecap="round" stroke-linejoin="round"/>
<path d="M66.6562 288.5H100.344" stroke="white" stroke-width="3" stroke-linecap="round" stroke-linejoin="round"/>
<path d="M83.5 271.656V305.344" stroke="white" stroke-width="3" stroke-linecap="round" stroke-linejoin="round"/>
<path d="M125.656 86.5H159.344" stroke="white" stroke-width="3" stroke-linecap="round" stroke-linejoin="round"/>
<path d="M142.5 69.6562V103.344" stroke="white" stroke-width="3" stroke-linecap="round" stroke-linejoin="round"/>
<path d="M125.656 24.5H159.344" stroke="white" stroke-width="3" stroke-linecap="round" stroke-linejoin="round"/>
<path d="M142.5 7.65625V41.3438" stroke="white" stroke-width="3" stroke-linecap="round" stroke-linejoin="round"/>
<path d="M125.656 148.5H159.344" stroke="white" stroke-width="3" stroke-linecap="round" stroke-linejoin="round"/>
<path d="M142.5 131.656V165.344" stroke="white" stroke-width="3" stroke-linecap="round" stroke-linejoin="round"/>
<path d="M125.656 218.5H159.344" stroke="white" stroke-width="3" stroke-linecap="round" stroke-linejoin="round"/>
<path d="M142.5 201.656V235.344" stroke="white" stroke-width="3" stroke-linecap="round" stroke-linejoin="round"/>
<path d="M125.656 288.5H159.344" stroke="white" stroke-width="3" stroke-linecap="round" stroke-linejoin="round"/>
<path d="M142.5 271.656V305.344" stroke="white" stroke-width="3" stroke-linecap="round" stroke-linejoin="round"/>
</svg>
